<svg id="logo" xmlns="http://www.w3.org/2000/svg" xmlns:xlink="http://www.w3.org/1999/xlink" width="161.97" height="35" viewBox="0 0 161.97 35">
  <defs>
    <linearGradient id="linear-gradient" y1="0.5" x2="1" y2="0.5" gradientUnits="objectBoundingBox">
      <stop offset="0" stop-color="#0db"/>
      <stop offset="1" stop-color="#1795e2"/>
    </linearGradient>
  </defs>
  <g id="XMLID_24_">
    <path id="XMLID_27_" d="M65.9,223.147a14.742,14.742,0,0,1-29.483,0c0-.234.006-.467.016-.694H33.675c-.009.227-.014.46-.014.692a17.5,17.5,0,1,0,35,0c0-.233,0-.466-.014-.692H65.886C65.9,222.682,65.9,222.913,65.9,223.147Z" transform="translate(-31.117 -205.642)" fill="url(#linear-gradient)"/>
    <path id="XMLID_26_" d="M52.416,2.761A14.735,14.735,0,0,1,67.037,15.6h2.777c-.059-.529-.143-1.091-.253-1.626a17.488,17.488,0,0,0-4.77-8.852,17.523,17.523,0,0,0-5.562-3.749A17.436,17.436,0,0,0,55.94.355a17.646,17.646,0,0,0-7.048,0A17.42,17.42,0,0,0,42.63,2.99a17.479,17.479,0,0,0-7.358,10.987c-.11.536-.194,1.1-.253,1.626H37.8A14.735,14.735,0,0,1,52.416,2.761Z" transform="translate(-32.372)" fill="url(#linear-gradient)"/>
    <path id="XMLID_25_" d="M29.616,167.728c-6,.158-7.459,4.066-7.459,4.066L20.075,175.9l-2.114-4.108s-1.479-3.908-7.474-4.066L0,167.709l3.083,2.928h7.223a5.965,5.965,0,0,1,4.942,3.6l4.807,8.986v.045l4.8-9.032a5.955,5.955,0,0,1,4.931-3.6h7.223l3.083-2.928Z" transform="translate(0 -155.034)" fill="url(#linear-gradient)"/>
  </g>
  <g id="Group_858" data-name="Group 858" transform="translate(47.17 10)">
    <path id="Path_46" data-name="Path 46" d="M99.98,28.2a6.472,6.472,0,0,1-1.54,4.62,5.382,5.382,0,0,1-4.2,1.68,6.2,6.2,0,0,1-3.01-.77,5.525,5.525,0,0,1-2.03-2.17,7.209,7.209,0,0,1-.7-3.36,6.472,6.472,0,0,1,1.54-4.62,5.435,5.435,0,0,1,4.27-1.68,5.229,5.229,0,0,1,4.13,1.68A6.706,6.706,0,0,1,99.98,28.2Zm-8.82,0c0,2.8,1.05,4.2,3.08,4.2s3.08-1.4,3.08-4.2c0-2.73-1.05-4.13-3.08-4.13a2.756,2.756,0,0,0-2.38,1.05A6.069,6.069,0,0,0,91.16,28.2Z" transform="translate(-74.15 -19.17)" fill="#202e41"/>
    <path id="Path_47" data-name="Path 47" d="M120.13,27.06a7.07,7.07,0,0,1-1.68,5.04,6.059,6.059,0,0,1-4.62,1.82,6.391,6.391,0,0,1-3.29-.84,5.125,5.125,0,0,1-2.17-2.38,8.446,8.446,0,0,1-.77-3.64,7.07,7.07,0,0,1,1.68-5.04,6.685,6.685,0,0,1,9.17,0A7.555,7.555,0,0,1,120.13,27.06Zm-9.66,0c0,3.08,1.12,4.55,3.36,4.55s3.36-1.54,3.36-4.55-1.12-4.55-3.36-4.55a2.983,2.983,0,0,0-2.59,1.19A6.627,6.627,0,0,0,110.47,27.06Z" transform="translate(-79.88 -18.66)" fill="#202e41"/>
    <path id="Path_48" data-name="Path 48" d="M139.32,34.62h-2.59V27.13a3.571,3.571,0,0,0-.56-2.1,1.85,1.85,0,0,0-1.61-.7,2.487,2.487,0,0,0-2.17.98,5.49,5.49,0,0,0-.7,3.22v6.02H129.1V22.51h2.38v1.61h.14a3.386,3.386,0,0,1,1.47-1.33,5.145,5.145,0,0,1,2.1-.49c1.89,0,3.08.63,3.71,1.89h.21a3.343,3.343,0,0,1,1.54-1.4,4.6,4.6,0,0,1,2.24-.49,3.841,3.841,0,0,1,3.15,1.12,4.936,4.936,0,0,1,.98,3.36v7.91h-2.59V27.13a3.571,3.571,0,0,0-.56-2.1,1.9,1.9,0,0,0-1.68-.7,2.448,2.448,0,0,0-2.17.91,4.7,4.7,0,0,0-.7,2.87v6.51Z" transform="translate(-86.33 -19.29)" fill="#202e41"/>
    <path id="Path_49" data-name="Path 49" d="M166.92,30.85a3.2,3.2,0,0,1-1.26,2.73,6.167,6.167,0,0,1-3.71.98,8.41,8.41,0,0,1-3.85-.7V31.62a9.81,9.81,0,0,0,3.99.98c1.61,0,2.38-.49,2.38-1.4a1.053,1.053,0,0,0-.28-.77,4.363,4.363,0,0,0-.84-.63c-.42-.21-.98-.49-1.68-.77a7.5,7.5,0,0,1-2.8-1.61,3.1,3.1,0,0,1-.77-2.1,2.67,2.67,0,0,1,1.26-2.38,6.062,6.062,0,0,1,3.43-.84h3.71l-.7,2.1c-.7,0-2.17-.14-3.08-.14-1.33,0-2.03.42-2.03,1.19a1.311,1.311,0,0,0,.56.98,9.219,9.219,0,0,0,2.31,1.05,15.947,15.947,0,0,1,2.17,1.05,3.648,3.648,0,0,1,.98,1.12A3.933,3.933,0,0,1,166.92,30.85Z" transform="translate(-95.03 -19.23)" fill="#202e41"/>
    <path id="Path_50" data-name="Path 50" d="M183.75,34.53l-1.54-5.81c-.21-.63-.56-2.03-1.05-4.34h-.07c-.42,2.03-.77,3.5-.98,4.34l-1.61,5.81h-2.87L172.2,22h2.66l1.54,6.16c.35,1.54.63,2.8.77,3.92h.07c.07-.56.21-1.19.35-1.89a10.218,10.218,0,0,1,.42-1.61L179.76,22h2.8l1.75,6.58a9.529,9.529,0,0,1,.42,1.68,12.333,12.333,0,0,1,.28,1.75h.07c.14-.91.35-2.24.77-3.92L187.46,22h2.59l-3.43,12.53Z" transform="translate(-99.26 -19.2)" fill="#202e41"/>
    <path id="Path_51" data-name="Path 51" d="M203.86,23.96a2.3,2.3,0,0,1,1.68.56,2.493,2.493,0,0,1,.56,1.75v.63l-2.1.07a7.993,7.993,0,0,0-4.2,1.05,3.267,3.267,0,0,0-1.4,2.8,3.71,3.71,0,0,0,.98,2.73,4,4,0,0,0,2.8.98,5.676,5.676,0,0,0,2.31-.42,5.432,5.432,0,0,0,1.75-1.47h.07v1.68h2.31V26.13a3.863,3.863,0,0,0-1.19-3.15,5.1,5.1,0,0,0-3.5-.98h-4.48l.91,2.1m5.67,5.46a2.8,2.8,0,0,1-.84,2.17,3.339,3.339,0,0,1-2.24.77,2.3,2.3,0,0,1-1.47-.42,1.5,1.5,0,0,1-.49-1.26,1.833,1.833,0,0,1,.84-1.68,5.664,5.664,0,0,1,2.66-.63l1.54-.07Z" transform="translate(-107.12 -19.2)" fill="#202e41"/>
    <path id="Path_52" data-name="Path 52" d="M214.8,22h2.8l2.45,6.86a16.335,16.335,0,0,1,.77,2.73h.07c.07-.42.21-.91.35-1.47.21-.56,1.12-3.29,2.8-8.12h2.8l-5.18,13.72c-.91,2.52-2.52,3.78-4.69,3.78a6.9,6.9,0,0,1-1.68-.21V37.26a7.754,7.754,0,0,0,1.33.14c1.26,0,2.1-.7,2.59-2.17l.42-1.12Z" transform="translate(-112.04 -19.2)" fill="#202e41"/>
    <path id="Path_53" data-name="Path 53" d="M75.51,29.13a7.887,7.887,0,0,1,.35,1.68,14.327,14.327,0,0,1,.42-1.96c.21-.7.35-1.26.49-1.61L79.92,18H71.8l3.08,9.24A14.81,14.81,0,0,1,75.51,29.13Z" transform="translate(-69.14 -18)" fill="none"/>
    <path id="Path_54" data-name="Path 54" d="M75.63,27.24c-.14.35-.28.91-.49,1.61a12.424,12.424,0,0,0-.42,1.96c-.07-.35-.21-.91-.35-1.68a14.533,14.533,0,0,0-.56-1.82L70.66,18H68l5.32,15.33h2.73L81.44,18H78.71Z" transform="translate(-68 -18)" fill="#202e41"/>
  </g>
</svg>
