<svg xmlns="http://www.w3.org/2000/svg" xmlns:xlink="http://www.w3.org/1999/xlink" width="744" height="427" viewBox="0 0 744 427">
    <defs>
        <path id="a" d="M0 0h537v345H0z"/>
    </defs>
    <g fill="none" fill-rule="evenodd">
        <path fill="#3C88B5" d="M655.453.39H88.248c-10.119 0-18.322 8.2-18.322 18.32v384.97h603.849V18.71c0-10.12-8.203-18.32-18.322-18.32z"/>
        <path fill="#FFF" stroke="#3C88B5" d="M741.2 417.103a1.69 1.69 0 0 1-.224.032l.038.499.225.446.364-.184-.226-.446-.177-.347zm-32.669 8.637v.5h.5v-.5h-.5zm-670.098 0h-.5v.5h.5v-.5zM.97 404.18v-.5l-.5.5h.5zm741.556 0h.5l-.5-.5v.5zM638.324 29.41H105.172a2.942 2.942 0 0 0-2.944 2.94v338.89c0 2.532 2.05 4.58 4.582 4.58h529.876a4.578 4.578 0 0 0 4.582-4.58V32.35a2.942 2.942 0 0 0-2.944-2.94z"/>
        <path fill="#B5D6EC" d="M741.377 417.45H1.974c7.546 3.86 16.438 6.7 26.15 8 3.324.45 6.602.7 9.809.77v.02h671.098v-.181a88.418 88.418 0 0 0 6.196-.609c9.711-1.3 18.603-4.14 26.15-8M375.099 13.78c0 1.6-1.303 2.91-2.91 2.91a2.915 2.915 0 0 1-2.91-2.91c0-1.61 1.303-2.91 2.91-2.91 1.607 0 2.91 1.3 2.91 2.91"/>
        <path fill="#1B638A" d="M320.043 403.68c-.041.28-.088.57-.088.87 0 3.37 2.736 6.11 6.111 6.11h91.946c3.375 0 6.11-2.74 6.11-6.11 0-.3-.046-.59-.088-.87H320.043"/>
        <g transform="translate(104 31)">
            <mask id="b" fill="#fff">
                <use xlink:href="#a"/>
            </mask>
            <path stroke="#B5D6EC" d="M1.393 1.667l534.524 341.876" mask="url(#b)"/>
            <path stroke="#B5D6EC" d="M1.328 1.242l534.645 342.207" mask="url(#b)" transform="matrix(-1 0 0 1 537.3 0)"/>
        </g>
    </g>
</svg>
